<?xml version="1.0" encoding="utf-8"?>
<!-- Generator: Adobe Illustrator 22.0.0, SVG Export Plug-In . SVG Version: 6.00 Build 0)  -->
<svg version="1.1"
	 id="svg2" inkscape:version="0.91 r13725" sodipodi:docname="keybridge.svg" xmlns:cc="http://creativecommons.org/ns#" xmlns:dc="http://purl.org/dc/elements/1.1/" xmlns:inkscape="http://www.inkscape.org/namespaces/inkscape" xmlns:rdf="http://www.w3.org/1999/02/22-rdf-syntax-ns#" xmlns:sodipodi="http://sodipodi.sourceforge.net/DTD/sodipodi-0.dtd" xmlns:svg="http://www.w3.org/2000/svg"
	 xmlns="http://www.w3.org/2000/svg" xmlns:xlink="http://www.w3.org/1999/xlink" x="0px" y="0px" viewBox="0 0 1332.1 254.4"
	 style="enable-background:new 0 0 1332.1 254.4;" xml:space="preserve">
<style type="text/css">
	.st0{fill:#FFFFFF;}
	.st1{enable-background:new    ;}
</style>
<defs>
	
	
		<inkscape:perspective  id="perspective4347" inkscape:persp3d-origin="456.42612 : 731.99145 : 1" inkscape:vp_x="-178.55208 : 1872.0972 : 1" inkscape:vp_y="0 : 1226.3429 : 0" inkscape:vp_z="1682.2634 : 1788.0051 : 1" sodipodi:type="inkscape:persp3d">
		</inkscape:perspective>
</defs>
<sodipodi:namedview  bordercolor="#666666" borderopacity="1.0" fit-margin-bottom="0" fit-margin-left="0" fit-margin-right="0" fit-margin-top="0" id="base" inkscape:current-layer="layer1" inkscape:cx="150.2397" inkscape:cy="73.262337" inkscape:document-units="px" inkscape:pageopacity="0.0" inkscape:pageshadow="2" inkscape:window-height="1136" inkscape:window-maximized="1" inkscape:window-width="1920" inkscape:window-x="0" inkscape:window-y="27" inkscape:zoom="0.24748737" pagecolor="#ffffff" showgrid="false">
	</sodipodi:namedview>
<g id="layer1" transform="translate(1442.0246,1151.1928)" inkscape:groupmode="layer" inkscape:label="Layer 1">
	<path id="path4275-0" inkscape:connector-curvature="0" class="st0" d="M-1346.8-1142.8c-52.6,0-95.3,42.6-95.3,95.3
		c0,17.9,5.1,35.5,14.6,50.6v-27.4c0-3.2,2.6-5.8,5.8-5.8h17.5c3.2,0,5.8,2.6,5.8,5.8v35c0,3.2-2.6,5.8-5.8,5.8h-13.1
		c18,19.9,43.6,31.2,70.4,31.3c26.8,0,52.4-11.4,70.4-31.3h-14.7c-3.3,0-5.9-2.6-5.9-5.8v-113.6c0-3.2,2.6-5.8,5.9-5.8h17.1
		C-1292-1130.4-1318.7-1142.8-1346.8-1142.8L-1346.8-1142.8z M-1267.5-1100.2V-995c10.4-15.6,15.9-33.9,15.9-52.6
		C-1251.5-1066.3-1257.1-1084.6-1267.5-1100.2z M-1334.5-1082.7h17.5c3.2,0,5.8,2.6,5.8,5.8v87.4c0,3.2-2.6,5.8-5.8,5.8h-17.5
		c-3.2,0-5.8-2.6-5.8-5.8v-87.4C-1340.3-1080.1-1337.7-1082.7-1334.5-1082.7z M-1378-1056.5h17.5c3.2,0,5.8,2.6,5.8,5.8v61.2
		c0,3.2-2.6,5.8-5.8,5.8h-17.5c-3.2,0-5.8-2.6-5.8-5.8v-61.2C-1383.9-1053.9-1381.2-1056.5-1378-1056.5z"/>
	<g class="st1">
		<path class="st0" d="M-1172.6-1017.2l68.9-75.8h14.9l-53.2,57.6l57.8,77.4h-14.8l-51.3-68.2l-22.1,20.1v48.1h-12.3v-193.3h12.3
			v96.9l-0.9,37.1H-1172.6z"/>
		<path class="st0" d="M-1007.1-955.4c-19.6,0-34.9-6-45.9-18.1c-11-12.1-16.5-29-16.5-50.8c0-21.5,5.3-38.8,15.9-51.7
			c10.6-13,24.9-19.4,42.9-19.4c15.9,0,28.4,5.5,37.6,16.6c9.2,11.1,13.8,26.2,13.8,45.2v9.9h-97.3c0.2,18.6,4.5,32.7,13,42.5
			c8.5,9.8,20.6,14.7,36.5,14.7c7.7,0,14.5-0.5,20.3-1.6c5.8-1.1,13.2-3.4,22.2-7v11.2c-7.6,3.3-14.7,5.6-21.1,6.8
			C-992.1-956-999.3-955.4-1007.1-955.4z M-1010.7-1084.6c-13,0-23.4,4.3-31.3,12.9c-7.9,8.6-12.5,20.9-13.8,37.1h83.5
			c0-15.7-3.4-27.9-10.2-36.7C-989.2-1080.2-998.6-1084.6-1010.7-1084.6z"/>
		<path class="st0" d="M-944.6-1092.9h12.7l28.6,75.8c8.7,23.3,14.2,39,16.5,47.1h0.7c3.5-10.7,9.1-26.6,17-47.8l28.6-75h12.7
			L-888.3-936c-4.9,12.8-9,21.4-12.3,25.8c-3.3,4.5-7.2,7.8-11.6,10.1c-4.4,2.2-9.8,3.4-16.1,3.4c-4.7,0-10-0.9-15.8-2.6v-10.7
			c4.8,1.3,10,2,15.5,2c4.2,0,8-1,11.2-3c3.2-2,6.1-5.1,8.8-9.3s5.6-10.8,9.1-19.9c3.4-9.1,5.7-15,6.6-17.7L-944.6-1092.9z"/>
		<path class="st0" d="M-748.2-1095.5c18.9,0,33.1,5.9,42.7,17.8c9.6,11.9,14.3,29.3,14.3,52.1c0,22.4-5,39.8-15.1,51.9
			s-24.2,18.3-42.4,18.3c-9.6,0-18.3-2-26-6c-7.7-4-13.8-9.6-18.3-16.9h-1.1l-3.5,20.4h-7.7v-193.3h12.3v48.6c0,7.3-0.2,14-0.5,20.1
			l-0.4,10.6h0.9c5.1-8.1,11.3-14.1,18.6-17.9C-767.1-1093.6-758.4-1095.5-748.2-1095.5z M-748.4-1084.4c-15.9,0-27.3,4.6-34.2,13.7
			c-6.9,9.1-10.3,24.1-10.3,45.1v2.1c0,20.4,3.6,35,10.7,43.9c7.2,8.9,18.3,13.3,33.5,13.3c14.7,0,25.8-5.2,33.3-15.5
			c7.5-10.3,11.2-25,11.2-44C-704.2-1064.9-718.9-1084.4-748.4-1084.4z"/>
		<path class="st0" d="M-600.6-1095.5c5.7,0,11.8,0.6,18.4,1.7l-2.4,11.8c-5.6-1.4-11.5-2.1-17.5-2.1c-11.5,0-21,4.9-28.3,14.7
			c-7.4,9.8-11.1,22.1-11.1,37v74.5h-12.3v-135h10.4l1.2,24.3h0.9c5.5-9.9,11.5-16.9,17.8-20.9
			C-617.2-1093.5-609.5-1095.5-600.6-1095.5z"/>
		<path class="st0" d="M-556.5-1130.4c0-8,2.6-11.9,7.8-11.9c2.6,0,4.6,1,6,3.1c1.4,2.1,2.2,5,2.2,8.8c0,3.7-0.7,6.7-2.2,8.8
			c-1.5,2.2-3.5,3.2-6,3.2C-553.9-1118.4-556.5-1122.4-556.5-1130.4z M-542.5-957.9h-12.3v-135h12.3V-957.9z"/>
		<path class="st0" d="M-447.8-1095.5c9.8,0,18.2,1.8,25.3,5.3c7.1,3.6,13.5,9.6,19.1,18.3h0.7c-0.5-10.4-0.7-20.7-0.7-30.7v-48.6
			h12.2v193.3h-8.1l-3.1-20.6h-1c-10.3,15.4-25,23.1-44.2,23.1c-18.6,0-32.9-5.8-42.7-17.4c-9.9-11.6-14.8-28.5-14.8-50.7
			c0-23.4,4.9-41.2,14.7-53.5C-480.6-1089.4-466.4-1095.5-447.8-1095.5z M-447.8-1084.4c-14.7,0-25.8,5.2-33.2,15.5
			c-7.4,10.4-11.1,25.4-11.1,45.1c0,38.3,14.9,57.4,44.6,57.4c15.2,0,26.4-4.4,33.5-13.3c7.1-8.9,10.7-23.5,10.7-43.9v-2.1
			c0-20.9-3.5-35.9-10.5-45C-420.8-1079.8-432.1-1084.4-447.8-1084.4z"/>
		<path class="st0" d="M-240.5-1092.9v8.6l-28,1.7c7.5,9.3,11.2,19.5,11.2,30.6c0,13-4.3,23.5-13,31.6c-8.7,8.1-20.3,12.1-34.8,12.1
			c-6.1,0-10.4-0.2-12.9-0.7c-4.9,2.6-8.6,5.6-11.2,9.1c-2.6,3.5-3.9,7.2-3.9,11.1c0,4.3,1.6,7.5,4.9,9.4c3.3,2,8.8,3,16.5,3h23.6
			c14.7,0,25.9,3,33.7,8.9c7.8,5.9,11.7,14.7,11.7,26.3c0,14.2-5.8,25.2-17.3,33c-11.6,7.7-28,11.6-49.4,11.6
			c-17,0-30.1-3.3-39.4-9.8c-9.3-6.5-14-15.7-14-27.3c0-9.3,2.9-17,8.6-23.1c5.8-6.1,13.6-10.3,23.4-12.5c-4.1-1.7-7.3-4.2-9.8-7.4
			c-2.4-3.2-3.7-6.9-3.7-11c0-9,5.8-17,17.3-23.9c-7.9-3.2-14-8.3-18.4-15.2c-4.4-6.9-6.6-14.8-6.6-23.8c0-13.5,4.3-24.3,12.9-32.5
			c8.6-8.2,20.1-12.2,34.7-12.2c8.9,0,15.7,0.9,20.6,2.6H-240.5z M-349.8-935c0,18.6,13.8,27.8,41.4,27.8
			c35.4,0,53.2-11.3,53.2-33.9c0-8.1-2.8-14-8.3-17.6c-5.5-3.6-14.5-5.5-27-5.5h-22.1C-337.4-964.2-349.8-954.5-349.8-935z
			 M-339.5-1050.8c0,10.4,3.2,18.5,9.5,24.3c6.3,5.8,14.8,8.6,25.4,8.6c11.3,0,19.9-2.9,25.9-8.6c6-5.7,9-14,9-24.8
			c0-11.5-3.1-20.1-9.3-25.9c-6.2-5.8-14.8-8.6-25.9-8.6c-10.8,0-19.2,3.1-25.4,9.3C-336.4-1070.4-339.5-1061.8-339.5-1050.8z"/>
		<path class="st0" d="M-158.2-955.4c-19.6,0-34.9-6-45.9-18.1c-11-12.1-16.5-29-16.5-50.8c0-21.5,5.3-38.8,15.9-51.7
			c10.6-13,24.9-19.4,42.9-19.4c15.9,0,28.4,5.5,37.6,16.6c9.2,11.1,13.8,26.2,13.8,45.2v9.9h-97.3c0.2,18.6,4.5,32.7,13,42.5
			c8.5,9.8,20.6,14.7,36.5,14.7c7.7,0,14.5-0.5,20.3-1.6c5.8-1.1,13.2-3.4,22.2-7v11.2c-7.6,3.3-14.7,5.6-21.1,6.8
			C-143.3-956-150.4-955.4-158.2-955.4z M-161.8-1084.6c-13,0-23.4,4.3-31.3,12.9c-7.9,8.6-12.5,20.9-13.8,37.1h83.5
			c0-15.7-3.4-27.9-10.2-36.7C-140.4-1080.2-149.8-1084.6-161.8-1084.6z"/>
	</g>
</g>
</svg>
