<?xml version="1.0" encoding="UTF-8" standalone="no"?>
<!-- Created with Inkscape (http://www.inkscape.org/) -->

<svg
   xmlns:dc="http://purl.org/dc/elements/1.1/"
   xmlns:cc="http://creativecommons.org/ns#"
   xmlns:rdf="http://www.w3.org/1999/02/22-rdf-syntax-ns#"
   xmlns:svg="http://www.w3.org/2000/svg"
   xmlns="http://www.w3.org/2000/svg"
   xmlns:sodipodi="http://sodipodi.sourceforge.net/DTD/sodipodi-0.dtd"
   xmlns:inkscape="http://www.inkscape.org/namespaces/inkscape"
   width="469.94064mm"
   height="89.750198mm"
   viewBox="0 0 1665.144 318.01251"
   id="svg2"
   version="1.1"
   inkscape:version="0.91 r13725"
   sodipodi:docname="keybridge.svg">
  <defs
     id="defs4">
    <inkscape:perspective
       sodipodi:type="inkscape:persp3d"
       inkscape:vp_x="-178.55208 : 1872.0972 : 1"
       inkscape:vp_y="0 : 1226.3429 : 0"
       inkscape:vp_z="1682.2634 : 1788.0051 : 1"
       inkscape:persp3d-origin="456.42612 : 731.99145 : 1"
       id="perspective4347" />
  </defs>
  <sodipodi:namedview
     id="base"
     pagecolor="#ffffff"
     bordercolor="#666666"
     borderopacity="1.0"
     inkscape:pageopacity="0.0"
     inkscape:pageshadow="2"
     inkscape:zoom="0.24748737"
     inkscape:cx="150.2397"
     inkscape:cy="73.262337"
     inkscape:document-units="px"
     inkscape:current-layer="layer1"
     showgrid="false"
     fit-margin-top="0"
     fit-margin-left="0"
     fit-margin-right="0"
     fit-margin-bottom="0"
     inkscape:window-width="1920"
     inkscape:window-height="1136"
     inkscape:window-x="0"
     inkscape:window-y="27"
     inkscape:window-maximized="1" />
  <metadata
     id="metadata7">
    <rdf:RDF>
      <cc:Work
         rdf:about="">
        <dc:format>image/svg+xml</dc:format>
        <dc:type
           rdf:resource="http://purl.org/dc/dcmitype/StillImage" />
        <dc:title></dc:title>
      </cc:Work>
    </rdf:RDF>
  </metadata>
  <g
     inkscape:label="Layer 1"
     inkscape:groupmode="layer"
     id="layer1"
     transform="translate(1442.0246,1151.1928)">
    <path
       style="fill:#2d323c;fill-opacity:1;stroke:#d0d0d0;stroke-width:0;stroke-miterlimit:4;stroke-dasharray:none;stroke-opacity:1"
       d="m -1322.9612,-1140.7632 a 119.06373,119.06373 0 0 0 -119.0634,119.0641 119.06373,119.06373 0 0 0 18.2639,63.26558 l 0,-34.29092 c 0,-4.02454 3.2589,-7.28356 7.2834,-7.28356 l 21.8515,0 c 4.0245,0 7.2835,3.26282 7.2835,7.28356 l 0,43.70644 c 0,4.02454 -3.2628,7.28363 -7.2835,7.28363 l -16.371,0 a 119.06373,119.06373 0 0 0 88.0356,39.09925 119.06373,119.06373 0 0 0 88.0362,-39.09925 l -18.3369,0 c -4.0666,0 -7.3599,-3.25909 -7.3599,-7.28363 l 0,-142.0398 c 0,-4.0207 3.2933,-7.2835 7.3599,-7.2835 l 21.4129,0 a 119.06373,119.06373 0 0 0 -91.1122,-42.4219 z m 99.139,53.2557 0,131.60726 a 119.06373,119.06373 0 0 0 19.925,-65.79886 119.06373,119.06373 0 0 0 -19.925,-65.8084 z m -83.7687,21.9454 21.8513,0 c 4.0245,0 7.2869,3.259 7.2836,7.2836 l 0,109.2605 c 0,4.02454 -3.2591,7.28363 -7.2836,7.28363 l -21.8513,0 c -4.0207,0 -7.2842,-3.25909 -7.2842,-7.28363 l 0,-109.2605 c 0,-4.0246 3.2635,-7.2836 7.2842,-7.2836 z m -54.4432,32.7786 21.8514,0 c 4.0245,0 7.2835,3.259 7.2835,7.2836 l 0,76.4819 c 0,4.02454 -3.259,7.28363 -7.2835,7.28363 l -21.8514,0 c -4.0206,0 -7.2835,-3.25909 -7.2835,-7.28363 l 0,-76.4819 c 0,-4.0246 3.2629,-7.2836 7.2835,-7.2836 z"
       id="path4275-0"
       inkscape:connector-curvature="0" />
    <text
       xml:space="preserve"
       style="font-style:normal;font-variant:normal;font-weight:200;font-stretch:normal;font-size:318.01065063px;line-height:200%;font-family:'DejaVu Sans';-inkscape-font-specification:'DejaVu Sans, Ultra-Light';text-align:start;letter-spacing:0px;word-spacing:0px;writing-mode:lr-tb;text-anchor:start;fill:#303133;fill-opacity:1;stroke:none;stroke-width:1px;stroke-linecap:butt;stroke-linejoin:miter;stroke-opacity:1"
       x="-1148.6201"
       y="-909.57782"
       id="text4404"
       sodipodi:linespacing="200%"><tspan
         sodipodi:role="line"
         x="-1148.6201"
         y="-909.57782"
         style="font-style:normal;font-variant:normal;font-weight:300;font-stretch:normal;font-size:318.01251221px;line-height:200%;font-family:'Open Sans';-inkscape-font-specification:'Open Sans, Light';text-align:start;writing-mode:lr-tb;text-anchor:start;fill:#303133;fill-opacity:1"
         id="tspan5573">keybridge</tspan></text>
  </g>
</svg>
